<mxfile host="app.diagrams.net" agent="Mozilla/5.0 (Macintosh; Intel Mac OS X 10_15_7) AppleWebKit/537.36 (KHTML, like Gecko) Chrome/137.0.0.0 Safari/537.36 Edg/137.0.0.0" version="27.1.4">
  <diagram name="PÃ¡gina-1" id="AqzY-6GFsEjk-wBMrsei">
    <mxGraphModel dx="2102" dy="1300" grid="1" gridSize="10" guides="1" tooltips="1" connect="1" arrows="1" fold="1" page="1" pageScale="1" pageWidth="1169" pageHeight="827" math="0" shadow="0">
      <root>
        <mxCell id="0" />
        <mxCell id="1" parent="0" />
        <mxCell id="caDoN5Qeqeb3D-998J45-1" value="" style="ellipse;whiteSpace=wrap;html=1;fillColor=#fff2cc;strokeColor=#d6b656;" vertex="1" parent="1">
          <mxGeometry x="680" y="550" width="280" height="190" as="geometry" />
        </mxCell>
        <mxCell id="caDoN5Qeqeb3D-998J45-2" value="&lt;b&gt;br0&lt;/b&gt;" style="rounded=0;whiteSpace=wrap;html=1;" vertex="1" parent="1">
          <mxGeometry x="710" y="625" width="70" height="65" as="geometry" />
        </mxCell>
        <mxCell id="caDoN5Qeqeb3D-998J45-3" value="" style="ellipse;shape=cloud;whiteSpace=wrap;html=1;" vertex="1" parent="1">
          <mxGeometry x="580" y="736.5" width="235" height="213.5" as="geometry" />
        </mxCell>
        <mxCell id="caDoN5Qeqeb3D-998J45-4" value="R13" style="shape=cylinder3;whiteSpace=wrap;html=1;boundedLbl=1;backgroundOutline=1;size=15;fontSize=13;fontStyle=0" vertex="1" parent="1">
          <mxGeometry x="1320" y="619" width="60" height="60" as="geometry" />
        </mxCell>
        <mxCell id="caDoN5Qeqeb3D-998J45-5" value="R3" style="shape=cylinder3;whiteSpace=wrap;html=1;boundedLbl=1;backgroundOutline=1;size=15;fontSize=13;fontStyle=0" vertex="1" parent="1">
          <mxGeometry x="1215" y="534" width="60" height="60" as="geometry" />
        </mxCell>
        <mxCell id="caDoN5Qeqeb3D-998J45-6" value="R7" style="shape=cylinder3;whiteSpace=wrap;html=1;boundedLbl=1;backgroundOutline=1;size=15;fontSize=13;fontStyle=0" vertex="1" parent="1">
          <mxGeometry x="1215" y="706.5" width="60" height="60" as="geometry" />
        </mxCell>
        <mxCell id="caDoN5Qeqeb3D-998J45-7" value="R6" style="shape=cylinder3;whiteSpace=wrap;html=1;boundedLbl=1;backgroundOutline=1;size=15;fontSize=13;fontStyle=0" vertex="1" parent="1">
          <mxGeometry x="1083.1" y="706.5" width="60" height="60" as="geometry" />
        </mxCell>
        <mxCell id="caDoN5Qeqeb3D-998J45-8" value="R5" style="shape=cylinder3;whiteSpace=wrap;html=1;boundedLbl=1;backgroundOutline=1;size=15;fontSize=13;fontStyle=0" vertex="1" parent="1">
          <mxGeometry x="1083.1" y="619" width="60" height="60" as="geometry" />
        </mxCell>
        <mxCell id="caDoN5Qeqeb3D-998J45-9" value="R4" style="shape=cylinder3;whiteSpace=wrap;html=1;boundedLbl=1;backgroundOutline=1;size=15;fontSize=13;fontStyle=0" vertex="1" parent="1">
          <mxGeometry x="951.0999999999999" y="706.5" width="60" height="60" as="geometry" />
        </mxCell>
        <mxCell id="caDoN5Qeqeb3D-998J45-10" value="R11" style="shape=cylinder3;whiteSpace=wrap;html=1;boundedLbl=1;backgroundOutline=1;size=15;fontSize=13;fontStyle=0" vertex="1" parent="1">
          <mxGeometry x="850" y="618.5" width="60" height="60" as="geometry" />
        </mxCell>
        <mxCell id="caDoN5Qeqeb3D-998J45-11" value="R1" style="shape=cylinder3;whiteSpace=wrap;html=1;boundedLbl=1;backgroundOutline=1;size=15;fontSize=13;fontStyle=0" vertex="1" parent="1">
          <mxGeometry x="951.0999999999999" y="534" width="60" height="60" as="geometry" />
        </mxCell>
        <mxCell id="caDoN5Qeqeb3D-998J45-12" value="R12" style="shape=cylinder3;whiteSpace=wrap;html=1;boundedLbl=1;backgroundOutline=1;size=15;fontSize=13;fontStyle=0" vertex="1" parent="1">
          <mxGeometry x="1150" y="434" width="60" height="60" as="geometry" />
        </mxCell>
        <mxCell id="caDoN5Qeqeb3D-998J45-13" value="" style="endArrow=none;html=1;rounded=0;exitX=0.5;exitY=0;exitDx=0;exitDy=0;exitPerimeter=0;strokeColor=default;strokeWidth=2;align=center;verticalAlign=middle;fontFamily=Helvetica;fontSize=13;fontColor=default;labelBackgroundColor=default;endFill=0;fontStyle=0;entryX=0.5;entryY=1;entryDx=0;entryDy=0;entryPerimeter=0;" edge="1" parent="1" source="caDoN5Qeqeb3D-998J45-9" target="caDoN5Qeqeb3D-998J45-11">
          <mxGeometry width="50" height="50" relative="1" as="geometry">
            <mxPoint x="995" y="618.5" as="sourcePoint" />
            <mxPoint x="995" y="553.5" as="targetPoint" />
          </mxGeometry>
        </mxCell>
        <mxCell id="caDoN5Qeqeb3D-998J45-14" value="" style="endArrow=none;html=1;rounded=0;exitX=1;exitY=0.5;exitDx=0;exitDy=0;exitPerimeter=0;strokeColor=default;strokeWidth=2;align=center;verticalAlign=middle;fontFamily=Helvetica;fontSize=13;fontColor=default;labelBackgroundColor=default;endFill=0;fontStyle=0;entryX=0;entryY=0.5;entryDx=0;entryDy=0;entryPerimeter=0;" edge="1" parent="1" source="caDoN5Qeqeb3D-998J45-10" target="caDoN5Qeqeb3D-998J45-11">
          <mxGeometry width="50" height="50" relative="1" as="geometry">
            <mxPoint x="950.97" y="646.5" as="sourcePoint" />
            <mxPoint x="950.97" y="586.5" as="targetPoint" />
          </mxGeometry>
        </mxCell>
        <mxCell id="caDoN5Qeqeb3D-998J45-15" value="" style="endArrow=none;html=1;rounded=0;exitX=1;exitY=0.5;exitDx=0;exitDy=0;exitPerimeter=0;strokeColor=default;strokeWidth=2;align=center;verticalAlign=middle;fontFamily=Helvetica;fontSize=13;fontColor=default;labelBackgroundColor=default;endFill=0;fontStyle=0;entryX=0;entryY=0.5;entryDx=0;entryDy=0;entryPerimeter=0;" edge="1" parent="1" source="caDoN5Qeqeb3D-998J45-10" target="caDoN5Qeqeb3D-998J45-9">
          <mxGeometry width="50" height="50" relative="1" as="geometry">
            <mxPoint x="918.8" y="662.5" as="sourcePoint" />
            <mxPoint x="959.8" y="602.5" as="targetPoint" />
          </mxGeometry>
        </mxCell>
        <mxCell id="caDoN5Qeqeb3D-998J45-16" value="R2" style="shape=cylinder3;whiteSpace=wrap;html=1;boundedLbl=1;backgroundOutline=1;size=15;fontSize=13;fontStyle=0" vertex="1" parent="1">
          <mxGeometry x="1083.1" y="534" width="60" height="60" as="geometry" />
        </mxCell>
        <mxCell id="caDoN5Qeqeb3D-998J45-17" value="" style="endArrow=none;html=1;rounded=0;exitX=0.5;exitY=0;exitDx=0;exitDy=0;exitPerimeter=0;strokeColor=default;strokeWidth=2;align=center;verticalAlign=middle;fontFamily=Helvetica;fontSize=13;fontColor=default;labelBackgroundColor=default;endFill=0;fontStyle=0;entryX=0.5;entryY=1;entryDx=0;entryDy=0;entryPerimeter=0;" edge="1" parent="1" source="caDoN5Qeqeb3D-998J45-7" target="caDoN5Qeqeb3D-998J45-8">
          <mxGeometry width="50" height="50" relative="1" as="geometry">
            <mxPoint x="1112.9" y="706.5" as="sourcePoint" />
            <mxPoint x="1113.29" y="679.0000000000002" as="targetPoint" />
          </mxGeometry>
        </mxCell>
        <mxCell id="caDoN5Qeqeb3D-998J45-18" value="" style="endArrow=none;html=1;rounded=0;exitX=0.5;exitY=0;exitDx=0;exitDy=0;exitPerimeter=0;strokeColor=default;strokeWidth=2;align=center;verticalAlign=middle;fontFamily=Helvetica;fontSize=13;fontColor=default;labelBackgroundColor=default;endFill=0;fontStyle=0;entryX=0.5;entryY=1;entryDx=0;entryDy=0;entryPerimeter=0;" edge="1" parent="1" source="caDoN5Qeqeb3D-998J45-8">
          <mxGeometry width="50" height="50" relative="1" as="geometry">
            <mxPoint x="1112.98" y="622" as="sourcePoint" />
            <mxPoint x="1112.98" y="594" as="targetPoint" />
          </mxGeometry>
        </mxCell>
        <mxCell id="caDoN5Qeqeb3D-998J45-19" value="" style="endArrow=none;html=1;rounded=0;exitX=1;exitY=0.5;exitDx=0;exitDy=0;exitPerimeter=0;strokeColor=default;strokeWidth=2;align=center;verticalAlign=middle;fontFamily=Helvetica;fontSize=13;fontColor=default;labelBackgroundColor=default;endFill=0;fontStyle=0;entryX=0;entryY=0.5;entryDx=0;entryDy=0;entryPerimeter=0;" edge="1" parent="1" source="caDoN5Qeqeb3D-998J45-9" target="caDoN5Qeqeb3D-998J45-7">
          <mxGeometry width="50" height="50" relative="1" as="geometry">
            <mxPoint x="1011.0999999999999" y="743" as="sourcePoint" />
            <mxPoint x="1011.0999999999999" y="630" as="targetPoint" />
          </mxGeometry>
        </mxCell>
        <mxCell id="caDoN5Qeqeb3D-998J45-20" value="" style="endArrow=none;html=1;rounded=0;exitX=1;exitY=0.5;exitDx=0;exitDy=0;exitPerimeter=0;strokeColor=default;strokeWidth=2;align=center;verticalAlign=middle;fontFamily=Helvetica;fontSize=13;fontColor=default;labelBackgroundColor=default;endFill=0;fontStyle=0;entryX=0;entryY=0.5;entryDx=0;entryDy=0;entryPerimeter=0;" edge="1" parent="1">
          <mxGeometry width="50" height="50" relative="1" as="geometry">
            <mxPoint x="1011.0999999999999" y="564" as="sourcePoint" />
            <mxPoint x="1083.1" y="564" as="targetPoint" />
          </mxGeometry>
        </mxCell>
        <mxCell id="caDoN5Qeqeb3D-998J45-21" value="" style="endArrow=none;html=1;rounded=0;exitX=1;exitY=0.5;exitDx=0;exitDy=0;exitPerimeter=0;strokeColor=default;strokeWidth=2;align=center;verticalAlign=middle;fontFamily=Helvetica;fontSize=13;fontColor=default;labelBackgroundColor=default;endFill=0;fontStyle=0;entryX=0;entryY=0.5;entryDx=0;entryDy=0;entryPerimeter=0;" edge="1" parent="1">
          <mxGeometry width="50" height="50" relative="1" as="geometry">
            <mxPoint x="1143.1" y="563.88" as="sourcePoint" />
            <mxPoint x="1215.1" y="563.88" as="targetPoint" />
          </mxGeometry>
        </mxCell>
        <mxCell id="caDoN5Qeqeb3D-998J45-22" value="" style="endArrow=none;html=1;rounded=0;exitX=1;exitY=0.5;exitDx=0;exitDy=0;exitPerimeter=0;strokeColor=default;strokeWidth=2;align=center;verticalAlign=middle;fontFamily=Helvetica;fontSize=13;fontColor=default;labelBackgroundColor=default;endFill=0;fontStyle=0;entryX=0;entryY=0.5;entryDx=0;entryDy=0;entryPerimeter=0;" edge="1" parent="1">
          <mxGeometry width="50" height="50" relative="1" as="geometry">
            <mxPoint x="1143.1" y="736.3800000000001" as="sourcePoint" />
            <mxPoint x="1215.1" y="736.3800000000001" as="targetPoint" />
          </mxGeometry>
        </mxCell>
        <mxCell id="caDoN5Qeqeb3D-998J45-23" value="" style="endArrow=none;html=1;rounded=0;exitX=1;exitY=0.5;exitDx=0;exitDy=0;exitPerimeter=0;strokeColor=default;strokeWidth=2;align=center;verticalAlign=middle;fontFamily=Helvetica;fontSize=13;fontColor=default;labelBackgroundColor=default;endFill=0;fontStyle=0;entryX=0;entryY=0.5;entryDx=0;entryDy=0;entryPerimeter=0;" edge="1" parent="1" target="caDoN5Qeqeb3D-998J45-4">
          <mxGeometry width="50" height="50" relative="1" as="geometry">
            <mxPoint x="1275" y="569" as="sourcePoint" />
            <mxPoint x="1316" y="484" as="targetPoint" />
          </mxGeometry>
        </mxCell>
        <mxCell id="caDoN5Qeqeb3D-998J45-24" value="" style="endArrow=none;html=1;rounded=0;exitX=0.5;exitY=0;exitDx=0;exitDy=0;exitPerimeter=0;strokeColor=default;strokeWidth=2;align=center;verticalAlign=middle;fontFamily=Helvetica;fontSize=13;fontColor=default;labelBackgroundColor=default;endFill=0;fontStyle=0;entryX=0.5;entryY=1;entryDx=0;entryDy=0;entryPerimeter=0;" edge="1" parent="1">
          <mxGeometry width="50" height="50" relative="1" as="geometry">
            <mxPoint x="1244.88" y="707" as="sourcePoint" />
            <mxPoint x="1244.88" y="594" as="targetPoint" />
          </mxGeometry>
        </mxCell>
        <mxCell id="caDoN5Qeqeb3D-998J45-25" value="" style="endArrow=none;html=1;rounded=0;exitX=1;exitY=0.5;exitDx=0;exitDy=0;exitPerimeter=0;strokeColor=default;strokeWidth=2;align=center;verticalAlign=middle;fontFamily=Helvetica;fontSize=13;fontColor=default;labelBackgroundColor=default;endFill=0;fontStyle=0;entryX=0;entryY=0.5;entryDx=0;entryDy=0;entryPerimeter=0;" edge="1" parent="1" source="caDoN5Qeqeb3D-998J45-6" target="caDoN5Qeqeb3D-998J45-4">
          <mxGeometry width="50" height="50" relative="1" as="geometry">
            <mxPoint x="1275" y="732.5" as="sourcePoint" />
            <mxPoint x="1320" y="812.5" as="targetPoint" />
          </mxGeometry>
        </mxCell>
        <mxCell id="caDoN5Qeqeb3D-998J45-26" value="" style="endArrow=none;html=1;rounded=0;exitX=0.5;exitY=0;exitDx=0;exitDy=0;exitPerimeter=0;strokeColor=default;strokeWidth=2;align=center;verticalAlign=middle;fontFamily=Helvetica;fontSize=13;fontColor=default;labelBackgroundColor=default;endFill=0;fontStyle=0;entryX=0.5;entryY=1;entryDx=0;entryDy=0;entryPerimeter=0;" edge="1" parent="1" source="caDoN5Qeqeb3D-998J45-16" target="caDoN5Qeqeb3D-998J45-12">
          <mxGeometry width="50" height="50" relative="1" as="geometry">
            <mxPoint x="1153.1" y="573.88" as="sourcePoint" />
            <mxPoint x="1225.1" y="573.88" as="targetPoint" />
          </mxGeometry>
        </mxCell>
        <mxCell id="caDoN5Qeqeb3D-998J45-27" value="" style="endArrow=none;html=1;rounded=0;exitX=0.5;exitY=0;exitDx=0;exitDy=0;exitPerimeter=0;strokeColor=default;strokeWidth=2;align=center;verticalAlign=middle;fontFamily=Helvetica;fontSize=13;fontColor=default;labelBackgroundColor=default;endFill=0;fontStyle=0;" edge="1" parent="1" source="caDoN5Qeqeb3D-998J45-5">
          <mxGeometry width="50" height="50" relative="1" as="geometry">
            <mxPoint x="1123" y="544" as="sourcePoint" />
            <mxPoint x="1180" y="494" as="targetPoint" />
          </mxGeometry>
        </mxCell>
        <mxCell id="caDoN5Qeqeb3D-998J45-28" value="&lt;span style=&quot;background-color: light-dark(#ffffff, var(--ge-dark-color, #121212));&quot;&gt;eth2&lt;/span&gt;" style="text;html=1;align=center;verticalAlign=middle;whiteSpace=wrap;rounded=0;" vertex="1" parent="1">
          <mxGeometry x="891.0999999999999" y="610" width="60" height="30" as="geometry" />
        </mxCell>
        <mxCell id="caDoN5Qeqeb3D-998J45-29" value="&lt;span style=&quot;background-color: light-dark(#ffffff, var(--ge-dark-color, #121212));&quot;&gt;eth3&lt;/span&gt;" style="text;html=1;align=center;verticalAlign=middle;whiteSpace=wrap;rounded=0;" vertex="1" parent="1">
          <mxGeometry x="890" y="660" width="60" height="30" as="geometry" />
        </mxCell>
        <mxCell id="caDoN5Qeqeb3D-998J45-30" value="&lt;span style=&quot;background-color: light-dark(#ffffff, var(--ge-dark-color, #121212));&quot;&gt;eth3&lt;/span&gt;" style="text;html=1;align=center;verticalAlign=middle;whiteSpace=wrap;rounded=0;" vertex="1" parent="1">
          <mxGeometry x="910" y="706.5" width="60" height="30" as="geometry" />
        </mxCell>
        <mxCell id="caDoN5Qeqeb3D-998J45-31" value="&lt;span style=&quot;background-color: light-dark(#ffffff, var(--ge-dark-color, #121212));&quot;&gt;eth4&lt;/span&gt;" style="text;html=1;align=center;verticalAlign=middle;whiteSpace=wrap;rounded=0;" vertex="1" parent="1">
          <mxGeometry x="910" y="550" width="60" height="30" as="geometry" />
        </mxCell>
        <mxCell id="caDoN5Qeqeb3D-998J45-32" value="&lt;span style=&quot;background-color: light-dark(#ffffff, var(--ge-dark-color, #121212));&quot;&gt;eth2&lt;/span&gt;" style="text;html=1;align=center;verticalAlign=middle;whiteSpace=wrap;rounded=0;" vertex="1" parent="1">
          <mxGeometry x="970" y="588.5" width="60" height="30" as="geometry" />
        </mxCell>
        <mxCell id="caDoN5Qeqeb3D-998J45-33" value="&lt;span style=&quot;background-color: light-dark(#ffffff, var(--ge-dark-color, #121212));&quot;&gt;eth2&lt;/span&gt;" style="text;html=1;align=center;verticalAlign=middle;whiteSpace=wrap;rounded=0;" vertex="1" parent="1">
          <mxGeometry x="970" y="683" width="60" height="30" as="geometry" />
        </mxCell>
        <mxCell id="caDoN5Qeqeb3D-998J45-34" value="&lt;span style=&quot;background-color: light-dark(#ffffff, var(--ge-dark-color, #121212));&quot;&gt;eth4&lt;/span&gt;" style="text;html=1;align=center;verticalAlign=middle;whiteSpace=wrap;rounded=0;" vertex="1" parent="1">
          <mxGeometry x="990" y="730" width="60" height="30" as="geometry" />
        </mxCell>
        <mxCell id="caDoN5Qeqeb3D-998J45-35" value="&lt;span style=&quot;background-color: light-dark(#ffffff, var(--ge-dark-color, #121212));&quot;&gt;eth4&lt;/span&gt;" style="text;html=1;align=center;verticalAlign=middle;whiteSpace=wrap;rounded=0;" vertex="1" parent="1">
          <mxGeometry x="1050" y="730" width="60" height="30" as="geometry" />
        </mxCell>
        <mxCell id="caDoN5Qeqeb3D-998J45-36" value="&lt;span style=&quot;background-color: light-dark(#ffffff, var(--ge-dark-color, #121212));&quot;&gt;eth2&lt;/span&gt;" style="text;html=1;align=center;verticalAlign=middle;whiteSpace=wrap;rounded=0;" vertex="1" parent="1">
          <mxGeometry x="1120" y="730" width="60" height="30" as="geometry" />
        </mxCell>
        <mxCell id="caDoN5Qeqeb3D-998J45-37" value="&lt;span style=&quot;background-color: light-dark(#ffffff, var(--ge-dark-color, #121212));&quot;&gt;eth2&lt;/span&gt;" style="text;html=1;align=center;verticalAlign=middle;whiteSpace=wrap;rounded=0;" vertex="1" parent="1">
          <mxGeometry x="1180" y="730" width="60" height="30" as="geometry" />
        </mxCell>
        <mxCell id="caDoN5Qeqeb3D-998J45-38" value="&lt;span style=&quot;background-color: light-dark(#ffffff, var(--ge-dark-color, #121212));&quot;&gt;eth3&lt;/span&gt;" style="text;html=1;align=center;verticalAlign=middle;whiteSpace=wrap;rounded=0;" vertex="1" parent="1">
          <mxGeometry x="1100" y="690" width="60" height="30" as="geometry" />
        </mxCell>
        <mxCell id="caDoN5Qeqeb3D-998J45-39" value="&lt;span style=&quot;background-color: light-dark(#ffffff, var(--ge-dark-color, #121212));&quot;&gt;eth3&lt;/span&gt;" style="text;html=1;align=center;verticalAlign=middle;whiteSpace=wrap;rounded=0;" vertex="1" parent="1">
          <mxGeometry x="1100" y="600" width="60" height="30" as="geometry" />
        </mxCell>
        <mxCell id="caDoN5Qeqeb3D-998J45-40" value="&lt;span style=&quot;background-color: light-dark(#ffffff, var(--ge-dark-color, #121212));&quot;&gt;eth2&lt;/span&gt;" style="text;html=1;align=center;verticalAlign=middle;whiteSpace=wrap;rounded=0;" vertex="1" parent="1">
          <mxGeometry x="1100" y="660" width="60" height="30" as="geometry" />
        </mxCell>
        <mxCell id="caDoN5Qeqeb3D-998J45-41" value="&lt;span style=&quot;background-color: light-dark(#ffffff, var(--ge-dark-color, #121212));&quot;&gt;eth5&lt;/span&gt;" style="text;html=1;align=center;verticalAlign=middle;whiteSpace=wrap;rounded=0;" vertex="1" parent="1">
          <mxGeometry x="1100" y="580" width="60" height="30" as="geometry" />
        </mxCell>
        <mxCell id="caDoN5Qeqeb3D-998J45-42" value="&lt;span style=&quot;background-color: light-dark(#ffffff, var(--ge-dark-color, #121212));&quot;&gt;eth3&lt;/span&gt;" style="text;html=1;align=center;verticalAlign=middle;whiteSpace=wrap;rounded=0;" vertex="1" parent="1">
          <mxGeometry x="1050" y="560" width="60" height="28.5" as="geometry" />
        </mxCell>
        <mxCell id="caDoN5Qeqeb3D-998J45-43" value="&lt;span style=&quot;background-color: light-dark(#ffffff, var(--ge-dark-color, #121212));&quot;&gt;eth3&lt;/span&gt;" style="text;html=1;align=center;verticalAlign=middle;whiteSpace=wrap;rounded=0;" vertex="1" parent="1">
          <mxGeometry x="990" y="560" width="60" height="28.5" as="geometry" />
        </mxCell>
        <mxCell id="caDoN5Qeqeb3D-998J45-44" value="&lt;span style=&quot;background-color: light-dark(#ffffff, var(--ge-dark-color, #121212));&quot;&gt;eth4&lt;/span&gt;" style="text;html=1;align=center;verticalAlign=middle;whiteSpace=wrap;rounded=0;" vertex="1" parent="1">
          <mxGeometry x="1120" y="558.5" width="60" height="30" as="geometry" />
        </mxCell>
        <mxCell id="caDoN5Qeqeb3D-998J45-45" value="&lt;span style=&quot;background-color: light-dark(#ffffff, var(--ge-dark-color, #121212));&quot;&gt;eth4&lt;/span&gt;" style="text;html=1;align=center;verticalAlign=middle;whiteSpace=wrap;rounded=0;" vertex="1" parent="1">
          <mxGeometry x="1180" y="558.5" width="60" height="30" as="geometry" />
        </mxCell>
        <mxCell id="caDoN5Qeqeb3D-998J45-46" value="&lt;span style=&quot;background-color: light-dark(#ffffff, var(--ge-dark-color, #121212));&quot;&gt;eth4&lt;/span&gt;" style="text;html=1;align=center;verticalAlign=middle;whiteSpace=wrap;rounded=0;" vertex="1" parent="1">
          <mxGeometry x="1230" y="690" width="60" height="30" as="geometry" />
        </mxCell>
        <mxCell id="caDoN5Qeqeb3D-998J45-47" value="&lt;span style=&quot;background-color: light-dark(#ffffff, var(--ge-dark-color, #121212));&quot;&gt;eth3&lt;/span&gt;" style="text;html=1;align=center;verticalAlign=middle;whiteSpace=wrap;rounded=0;" vertex="1" parent="1">
          <mxGeometry x="1230" y="580" width="60" height="30" as="geometry" />
        </mxCell>
        <mxCell id="caDoN5Qeqeb3D-998J45-48" value="&lt;span style=&quot;background-color: light-dark(#ffffff, var(--ge-dark-color, #121212));&quot;&gt;eth3&lt;/span&gt;" style="text;html=1;align=center;verticalAlign=middle;whiteSpace=wrap;rounded=0;" vertex="1" parent="1">
          <mxGeometry x="1250" y="730" width="60" height="30" as="geometry" />
        </mxCell>
        <mxCell id="caDoN5Qeqeb3D-998J45-49" value="&lt;span style=&quot;background-color: light-dark(#ffffff, var(--ge-dark-color, #121212));&quot;&gt;eth3&lt;/span&gt;" style="text;html=1;align=center;verticalAlign=middle;whiteSpace=wrap;rounded=0;" vertex="1" parent="1">
          <mxGeometry x="1290" y="653" width="60" height="30" as="geometry" />
        </mxCell>
        <mxCell id="caDoN5Qeqeb3D-998J45-50" value="&lt;span style=&quot;background-color: light-dark(#ffffff, var(--ge-dark-color, #121212));&quot;&gt;eth2&lt;/span&gt;" style="text;html=1;align=center;verticalAlign=middle;whiteSpace=wrap;rounded=0;" vertex="1" parent="1">
          <mxGeometry x="1280" y="610" width="60" height="30" as="geometry" />
        </mxCell>
        <mxCell id="caDoN5Qeqeb3D-998J45-51" value="&lt;span style=&quot;background-color: light-dark(#ffffff, var(--ge-dark-color, #121212));&quot;&gt;eth2&lt;/span&gt;" style="text;html=1;align=center;verticalAlign=middle;whiteSpace=wrap;rounded=0;" vertex="1" parent="1">
          <mxGeometry x="1250" y="549" width="60" height="30" as="geometry" />
        </mxCell>
        <mxCell id="caDoN5Qeqeb3D-998J45-52" value="&lt;span style=&quot;background-color: light-dark(#ffffff, var(--ge-dark-color, #121212));&quot;&gt;eth5&lt;/span&gt;" style="text;html=1;align=center;verticalAlign=middle;whiteSpace=wrap;rounded=0;" vertex="1" parent="1">
          <mxGeometry x="1220" y="510" width="60" height="30" as="geometry" />
        </mxCell>
        <mxCell id="caDoN5Qeqeb3D-998J45-53" value="&lt;span style=&quot;background-color: light-dark(#ffffff, var(--ge-dark-color, #121212));&quot;&gt;eth2&lt;/span&gt;" style="text;html=1;align=center;verticalAlign=middle;whiteSpace=wrap;rounded=0;" vertex="1" parent="1">
          <mxGeometry x="1100" y="510" width="60" height="30" as="geometry" />
        </mxCell>
        <mxCell id="caDoN5Qeqeb3D-998J45-54" value="&lt;span style=&quot;background-color: light-dark(#ffffff, var(--ge-dark-color, #121212));&quot;&gt;eth2&lt;/span&gt;" style="text;html=1;align=center;verticalAlign=middle;whiteSpace=wrap;rounded=0;" vertex="1" parent="1">
          <mxGeometry x="1130" y="479" width="60" height="30" as="geometry" />
        </mxCell>
        <mxCell id="caDoN5Qeqeb3D-998J45-55" value="&lt;span style=&quot;background-color: light-dark(#ffffff, var(--ge-dark-color, #121212));&quot;&gt;eth4&lt;/span&gt;" style="text;html=1;align=center;verticalAlign=middle;whiteSpace=wrap;rounded=0;" vertex="1" parent="1">
          <mxGeometry x="1170" y="480" width="60" height="30" as="geometry" />
        </mxCell>
        <mxCell id="caDoN5Qeqeb3D-998J45-56" value="192.168.1.0/24" style="text;html=1;align=center;verticalAlign=middle;resizable=0;points=[];autosize=1;strokeColor=none;fillColor=none;" vertex="1" parent="1">
          <mxGeometry x="840" y="570" width="100" height="30" as="geometry" />
        </mxCell>
        <mxCell id="caDoN5Qeqeb3D-998J45-57" value="192.168.2.0/24" style="text;html=1;align=center;verticalAlign=middle;resizable=0;points=[];autosize=1;strokeColor=none;fillColor=none;" vertex="1" parent="1">
          <mxGeometry x="880" y="678" width="100" height="30" as="geometry" />
        </mxCell>
        <mxCell id="caDoN5Qeqeb3D-998J45-58" value="192.168.5.0/24" style="text;html=1;align=center;verticalAlign=middle;resizable=0;points=[];autosize=1;strokeColor=none;fillColor=none;" vertex="1" parent="1">
          <mxGeometry x="1000" y="750" width="100" height="30" as="geometry" />
        </mxCell>
        <mxCell id="caDoN5Qeqeb3D-998J45-59" value="192.168.3.0/24" style="text;html=1;align=center;verticalAlign=middle;resizable=0;points=[];autosize=1;strokeColor=none;fillColor=none;" vertex="1" parent="1">
          <mxGeometry x="969.5" y="634" width="100" height="30" as="geometry" />
        </mxCell>
        <mxCell id="caDoN5Qeqeb3D-998J45-60" value="192.168.4.0/24" style="text;html=1;align=center;verticalAlign=middle;resizable=0;points=[];autosize=1;strokeColor=none;fillColor=none;" vertex="1" parent="1">
          <mxGeometry x="990" y="528.5" width="100" height="30" as="geometry" />
        </mxCell>
        <mxCell id="caDoN5Qeqeb3D-998J45-61" value="192.168.8.0/24" style="text;html=1;align=center;verticalAlign=middle;resizable=0;points=[];autosize=1;strokeColor=none;fillColor=none;" vertex="1" parent="1">
          <mxGeometry x="1130" y="528.5" width="100" height="30" as="geometry" />
        </mxCell>
        <mxCell id="caDoN5Qeqeb3D-998J45-62" value="192.168.6.0/24" style="text;html=1;align=center;verticalAlign=middle;resizable=0;points=[];autosize=1;strokeColor=none;fillColor=none;" vertex="1" parent="1">
          <mxGeometry x="1100" y="589" width="100" height="30" as="geometry" />
        </mxCell>
        <mxCell id="caDoN5Qeqeb3D-998J45-63" value="192.168.7.0/24" style="text;html=1;align=center;verticalAlign=middle;resizable=0;points=[];autosize=1;strokeColor=none;fillColor=none;" vertex="1" parent="1">
          <mxGeometry x="1100" y="676.5" width="100" height="30" as="geometry" />
        </mxCell>
        <mxCell id="caDoN5Qeqeb3D-998J45-64" value="192.168.9.0/24" style="text;html=1;align=center;verticalAlign=middle;resizable=0;points=[];autosize=1;strokeColor=none;fillColor=none;" vertex="1" parent="1">
          <mxGeometry x="1130" y="750" width="100" height="30" as="geometry" />
        </mxCell>
        <mxCell id="caDoN5Qeqeb3D-998J45-65" value="192.168.10.0/24" style="text;html=1;align=center;verticalAlign=middle;resizable=0;points=[];autosize=1;strokeColor=none;fillColor=none;" vertex="1" parent="1">
          <mxGeometry x="1215" y="634" width="110" height="30" as="geometry" />
        </mxCell>
        <mxCell id="caDoN5Qeqeb3D-998J45-66" value="192.168.11.0/24" style="text;html=1;align=center;verticalAlign=middle;resizable=0;points=[];autosize=1;strokeColor=none;fillColor=none;" vertex="1" parent="1">
          <mxGeometry x="1275" y="700" width="110" height="30" as="geometry" />
        </mxCell>
        <mxCell id="caDoN5Qeqeb3D-998J45-67" value="192.168.12.0/24" style="text;html=1;align=center;verticalAlign=middle;resizable=0;points=[];autosize=1;strokeColor=none;fillColor=none;" vertex="1" parent="1">
          <mxGeometry x="1280" y="580" width="110" height="30" as="geometry" />
        </mxCell>
        <mxCell id="caDoN5Qeqeb3D-998J45-68" value="192.168.14.0/24" style="text;html=1;align=center;verticalAlign=middle;resizable=0;points=[];autosize=1;strokeColor=none;fillColor=none;" vertex="1" parent="1">
          <mxGeometry x="1205" y="494" width="110" height="30" as="geometry" />
        </mxCell>
        <mxCell id="caDoN5Qeqeb3D-998J45-69" value="192.168.13.0/24" style="text;html=1;align=center;verticalAlign=middle;resizable=0;points=[];autosize=1;strokeColor=none;fillColor=none;" vertex="1" parent="1">
          <mxGeometry x="1100" y="498.5" width="110" height="30" as="geometry" />
        </mxCell>
        <mxCell id="caDoN5Qeqeb3D-998J45-70" value="ned" style="aspect=fixed;sketch=0;html=1;dashed=0;whitespace=wrap;verticalLabelPosition=bottom;verticalAlign=top;fillColor=#2875E2;strokeColor=#ffffff;points=[[0.005,0.63,0],[0.1,0.2,0],[0.9,0.2,0],[0.5,0,0],[0.995,0.63,0],[0.72,0.99,0],[0.5,1,0],[0.28,0.99,0]];shape=mxgraph.kubernetes.icon2;kubernetesLabel=1;prIcon=pod" vertex="1" parent="1">
          <mxGeometry x="717" y="800" width="54.44" height="52.25" as="geometry" />
        </mxCell>
        <mxCell id="caDoN5Qeqeb3D-998J45-71" value="proxy" style="aspect=fixed;sketch=0;html=1;dashed=0;whitespace=wrap;verticalLabelPosition=bottom;verticalAlign=top;fillColor=#2875E2;strokeColor=#ffffff;points=[[0.005,0.63,0],[0.1,0.2,0],[0.9,0.2,0],[0.5,0,0],[0.995,0.63,0],[0.72,0.99,0],[0.5,1,0],[0.28,0.99,0]];shape=mxgraph.kubernetes.icon2;prIcon=pod" vertex="1" parent="1">
          <mxGeometry x="617" y="800" width="50" height="48" as="geometry" />
        </mxCell>
        <mxCell id="caDoN5Qeqeb3D-998J45-72" value="" style="endArrow=none;html=1;rounded=0;entryX=0.114;entryY=0.438;entryDx=0;entryDy=0;entryPerimeter=0;" edge="1" parent="1" source="caDoN5Qeqeb3D-998J45-71" target="caDoN5Qeqeb3D-998J45-70">
          <mxGeometry width="50" height="50" relative="1" as="geometry">
            <mxPoint x="937" y="740" as="sourcePoint" />
            <mxPoint x="987" y="690" as="targetPoint" />
          </mxGeometry>
        </mxCell>
        <mxCell id="caDoN5Qeqeb3D-998J45-73" value="10.0.1.15" style="edgeLabel;html=1;align=center;verticalAlign=middle;resizable=0;points=[];" vertex="1" connectable="0" parent="caDoN5Qeqeb3D-998J45-72">
          <mxGeometry x="-0.4958" relative="1" as="geometry">
            <mxPoint as="offset" />
          </mxGeometry>
        </mxCell>
        <mxCell id="caDoN5Qeqeb3D-998J45-74" value="10.0.2.2" style="points=[[0.35,0,0],[0.98,0.51,0],[1,0.71,0],[0.67,1,0],[0,0.795,0],[0,0.65,0]];verticalLabelPosition=bottom;sketch=0;html=1;verticalAlign=top;aspect=fixed;align=center;pointerEvents=1;shape=mxgraph.cisco19.user;fillColor=#005073;strokeColor=none;" vertex="1" parent="1">
          <mxGeometry x="602.75" y="1010" width="78.5" height="78.5" as="geometry" />
        </mxCell>
        <mxCell id="caDoN5Qeqeb3D-998J45-75" value="" style="endArrow=none;html=1;rounded=0;exitX=0.507;exitY=0.092;exitDx=0;exitDy=0;exitPerimeter=0;entryX=0.5;entryY=1;entryDx=0;entryDy=0;entryPerimeter=0;" edge="1" parent="1" source="caDoN5Qeqeb3D-998J45-74" target="caDoN5Qeqeb3D-998J45-71">
          <mxGeometry width="50" height="50" relative="1" as="geometry">
            <mxPoint x="717" y="870" as="sourcePoint" />
            <mxPoint x="767" y="820" as="targetPoint" />
          </mxGeometry>
        </mxCell>
        <mxCell id="caDoN5Qeqeb3D-998J45-76" value="10.0.2.0/24" style="edgeLabel;html=1;align=center;verticalAlign=middle;resizable=0;points=[];" vertex="1" connectable="0" parent="caDoN5Qeqeb3D-998J45-75">
          <mxGeometry x="-0.2295" relative="1" as="geometry">
            <mxPoint as="offset" />
          </mxGeometry>
        </mxCell>
        <mxCell id="caDoN5Qeqeb3D-998J45-77" value="10.0.2.1" style="edgeLabel;html=1;align=center;verticalAlign=middle;resizable=0;points=[];" vertex="1" connectable="0" parent="caDoN5Qeqeb3D-998J45-75">
          <mxGeometry x="0.5844" relative="1" as="geometry">
            <mxPoint as="offset" />
          </mxGeometry>
        </mxCell>
        <mxCell id="caDoN5Qeqeb3D-998J45-78" value="" style="endArrow=none;html=1;rounded=0;entryX=0;entryY=0;entryDx=0;entryDy=22.5;entryPerimeter=0;exitX=1;exitY=0.25;exitDx=0;exitDy=0;" edge="1" parent="1" source="caDoN5Qeqeb3D-998J45-2" target="caDoN5Qeqeb3D-998J45-10">
          <mxGeometry width="50" height="50" relative="1" as="geometry">
            <mxPoint x="742" y="628.16" as="sourcePoint" />
            <mxPoint x="802" y="568.16" as="targetPoint" />
          </mxGeometry>
        </mxCell>
        <mxCell id="caDoN5Qeqeb3D-998J45-79" value="veth1" style="edgeLabel;html=1;align=center;verticalAlign=middle;resizable=0;points=[];" vertex="1" connectable="0" parent="caDoN5Qeqeb3D-998J45-78">
          <mxGeometry x="0.6423" relative="1" as="geometry">
            <mxPoint as="offset" />
          </mxGeometry>
        </mxCell>
        <mxCell id="caDoN5Qeqeb3D-998J45-80" value="" style="endArrow=none;html=1;rounded=0;exitX=0.5;exitY=0;exitDx=0;exitDy=0;exitPerimeter=0;entryX=0.5;entryY=1;entryDx=0;entryDy=0;" edge="1" parent="1" source="caDoN5Qeqeb3D-998J45-70" target="caDoN5Qeqeb3D-998J45-2">
          <mxGeometry width="50" height="50" relative="1" as="geometry">
            <mxPoint x="944" y="825.75" as="sourcePoint" />
            <mxPoint x="742" y="692" as="targetPoint" />
          </mxGeometry>
        </mxCell>
        <mxCell id="caDoN5Qeqeb3D-998J45-81" value="&lt;div&gt;&lt;span style=&quot;font-size: 12px; text-wrap-mode: wrap; background-color: rgb(236, 236, 236);&quot;&gt;&lt;br&gt;&lt;/span&gt;&lt;/div&gt;" style="edgeLabel;html=1;align=center;verticalAlign=middle;resizable=0;points=[];" vertex="1" connectable="0" parent="caDoN5Qeqeb3D-998J45-80">
          <mxGeometry x="0.8272" y="1" relative="1" as="geometry">
            <mxPoint x="173" y="-3" as="offset" />
          </mxGeometry>
        </mxCell>
        <mxCell id="caDoN5Qeqeb3D-998J45-82" value="&lt;div&gt;&lt;br&gt;&lt;/div&gt;" style="edgeLabel;html=1;align=center;verticalAlign=middle;resizable=0;points=[];" vertex="1" connectable="0" parent="caDoN5Qeqeb3D-998J45-80">
          <mxGeometry x="0.8402" y="1" relative="1" as="geometry">
            <mxPoint x="-37" y="-90" as="offset" />
          </mxGeometry>
        </mxCell>
        <mxCell id="caDoN5Qeqeb3D-998J45-83" value="&lt;span style=&quot;font-size: 11px; background-color: rgb(255, 255, 255);&quot;&gt;10.0.1.20&lt;/span&gt;" style="text;html=1;align=center;verticalAlign=middle;resizable=0;points=[];autosize=1;strokeColor=none;fillColor=none;" vertex="1" parent="1">
          <mxGeometry x="795" y="608" width="70" height="30" as="geometry" />
        </mxCell>
        <mxCell id="caDoN5Qeqeb3D-998J45-84" value="&lt;span style=&quot;font-size: 11px; background-color: rgb(255, 255, 255);&quot;&gt;vxlan-1&lt;/span&gt;" style="text;html=1;align=center;verticalAlign=middle;resizable=0;points=[];autosize=1;strokeColor=none;fillColor=none;" vertex="1" parent="1">
          <mxGeometry x="710" y="678" width="60" height="30" as="geometry" />
        </mxCell>
        <mxCell id="caDoN5Qeqeb3D-998J45-85" value="&lt;span style=&quot;font-size: 11px; background-color: rgb(255, 255, 255);&quot;&gt;veth0&lt;/span&gt;" style="text;html=1;align=center;verticalAlign=middle;resizable=0;points=[];autosize=1;strokeColor=none;fillColor=none;" vertex="1" parent="1">
          <mxGeometry x="765" y="618" width="50" height="30" as="geometry" />
        </mxCell>
        <mxCell id="caDoN5Qeqeb3D-998J45-86" value="gateway" style="shape=cylinder3;whiteSpace=wrap;html=1;boundedLbl=1;backgroundOutline=1;size=15;fontSize=13;fontStyle=0" vertex="1" parent="1">
          <mxGeometry x="1070" y="330" width="60" height="60" as="geometry" />
        </mxCell>
        <mxCell id="caDoN5Qeqeb3D-998J45-87" value="" style="endArrow=none;html=1;rounded=0;exitX=0;exitY=0.75;exitDx=0;exitDy=0;" edge="1" parent="1" source="caDoN5Qeqeb3D-998J45-53">
          <mxGeometry width="50" height="50" relative="1" as="geometry">
            <mxPoint x="1098.67" y="498.5" as="sourcePoint" />
            <mxPoint x="1100" y="390" as="targetPoint" />
          </mxGeometry>
        </mxCell>
        <mxCell id="caDoN5Qeqeb3D-998J45-88" value="&lt;div&gt;&lt;span style=&quot;font-size: 12px; text-wrap-mode: wrap; background-color: rgb(236, 236, 236);&quot;&gt;&lt;br&gt;&lt;/span&gt;&lt;/div&gt;" style="edgeLabel;html=1;align=center;verticalAlign=middle;resizable=0;points=[];" vertex="1" connectable="0" parent="caDoN5Qeqeb3D-998J45-87">
          <mxGeometry x="0.8272" y="1" relative="1" as="geometry">
            <mxPoint x="173" y="-3" as="offset" />
          </mxGeometry>
        </mxCell>
        <mxCell id="caDoN5Qeqeb3D-998J45-89" value="&lt;div&gt;&lt;br&gt;&lt;/div&gt;" style="edgeLabel;html=1;align=center;verticalAlign=middle;resizable=0;points=[];" vertex="1" connectable="0" parent="caDoN5Qeqeb3D-998J45-87">
          <mxGeometry x="0.8402" y="1" relative="1" as="geometry">
            <mxPoint x="-37" y="-90" as="offset" />
          </mxGeometry>
        </mxCell>
        <mxCell id="caDoN5Qeqeb3D-998J45-90" value="&lt;span style=&quot;font-size: 12px; text-wrap-mode: wrap;&quot;&gt;eth1&lt;/span&gt;" style="edgeLabel;html=1;align=center;verticalAlign=middle;resizable=0;points=[];" vertex="1" connectable="0" parent="caDoN5Qeqeb3D-998J45-87">
          <mxGeometry x="-0.4935" y="-1" relative="1" as="geometry">
            <mxPoint y="-1" as="offset" />
          </mxGeometry>
        </mxCell>
        <mxCell id="caDoN5Qeqeb3D-998J45-91" value="192.168.15.0/24" style="edgeLabel;html=1;align=center;verticalAlign=middle;resizable=0;points=[];" vertex="1" connectable="0" parent="caDoN5Qeqeb3D-998J45-87">
          <mxGeometry x="0.1927" relative="1" as="geometry">
            <mxPoint y="-1" as="offset" />
          </mxGeometry>
        </mxCell>
        <mxCell id="caDoN5Qeqeb3D-998J45-92" value=".20" style="edgeLabel;html=1;align=center;verticalAlign=middle;resizable=0;points=[];" vertex="1" connectable="0" parent="caDoN5Qeqeb3D-998J45-87">
          <mxGeometry x="-0.7586" y="-1" relative="1" as="geometry">
            <mxPoint y="-1" as="offset" />
          </mxGeometry>
        </mxCell>
        <mxCell id="caDoN5Qeqeb3D-998J45-93" value="eth1" style="edgeLabel;html=1;align=center;verticalAlign=middle;resizable=0;points=[];" vertex="1" connectable="0" parent="caDoN5Qeqeb3D-998J45-87">
          <mxGeometry x="0.8321" y="2" relative="1" as="geometry">
            <mxPoint y="-1" as="offset" />
          </mxGeometry>
        </mxCell>
        <mxCell id="caDoN5Qeqeb3D-998J45-94" value=".3" style="edgeLabel;html=1;align=center;verticalAlign=middle;resizable=0;points=[];" vertex="1" connectable="0" parent="caDoN5Qeqeb3D-998J45-87">
          <mxGeometry x="0.6294" relative="1" as="geometry">
            <mxPoint y="-1" as="offset" />
          </mxGeometry>
        </mxCell>
        <mxCell id="caDoN5Qeqeb3D-998J45-95" value="192.168.27.0/24" style="endArrow=none;html=1;rounded=0;exitX=0.5;exitY=0;exitDx=0;exitDy=0;exitPerimeter=0;entryX=0.446;entryY=0.934;entryDx=0;entryDy=0;entryPerimeter=0;" edge="1" parent="1" source="caDoN5Qeqeb3D-998J45-86" target="caDoN5Qeqeb3D-998J45-96">
          <mxGeometry x="-0.0053" width="50" height="50" relative="1" as="geometry">
            <mxPoint x="1150" y="540" as="sourcePoint" />
            <mxPoint x="900" y="360" as="targetPoint" />
            <mxPoint as="offset" />
          </mxGeometry>
        </mxCell>
        <mxCell id="caDoN5Qeqeb3D-998J45-96" value="" style="html=1;verticalLabelPosition=bottom;align=center;labelBackgroundColor=#ffffff;verticalAlign=top;strokeWidth=2;strokeColor=#0080F0;shadow=0;dashed=0;shape=mxgraph.ios7.icons.cloud;" vertex="1" parent="1">
          <mxGeometry x="1063.1" y="220" width="80" height="40" as="geometry" />
        </mxCell>
      </root>
    </mxGraphModel>
  </diagram>
</mxfile>
